# MagicaVoxel @ Ephtracy

# group
g Wave 3

# material
mtllib Wave 3.mtl
usemtl palette

# normals
vn -1 0 0
vn 1 0 0
vn 0 0 1
vn 0 0 -1
vn 0 -1 0
vn 0 1 0

# texcoords
vt 0.0332031 0.5
vt 0.0371094 0.5
vt 0.0410156 0.5
vt 0.0449219 0.5
vt 0.0644531 0.5

# verts
v -48 0 -24
v -48 0 -27
v -48 0 -29
v -48 0 -31
v -48 0 -33
v -48 0 -34
v -48 1 -24
v -48 1 -27
v -48 1 -29
v -48 1 -31
v -48 1 -33
v -48 1 -34
v -44 0 -28
v -44 0 -29
v -44 1 -28
v -44 1 -29
v -43 0 -29
v -43 0 -30
v -43 1 -29
v -43 1 -30
v -42 0 -26
v -42 0 -27
v -42 1 -26
v -42 1 -27
v -41 0 -25
v -41 0 -26
v -41 1 -25
v -41 1 -26
v -40 0 -24
v -40 0 -25
v -40 0 -28
v -40 0 -29
v -40 0 -31
v -40 0 -33
v -40 0 -34
v -40 1 -24
v -40 1 -25
v -40 1 -28
v -40 1 -29
v -40 1 -31
v -40 1 -33
v -40 1 -34
v -36 0 -24
v -36 0 -27
v -36 0 -29
v -36 0 -31
v -36 0 -33
v -36 1 -24
v -36 1 -27
v -36 1 -29
v -36 1 -31
v -36 1 -33
v -35 0 -33
v -35 0 -34
v -35 1 -33
v -35 1 -34
v -31 0 -24
v -31 0 -27
v -31 0 -28
v -31 0 -30
v -31 0 -31
v -31 0 -32
v -31 1 -24
v -31 1 -27
v -31 1 -28
v -31 1 -30
v -31 1 -31
v -31 1 -32
v -27 0 -24
v -27 0 -27
v -27 0 -29
v -27 0 -31
v -27 0 -33
v -27 0 -34
v -27 1 -24
v -27 1 -27
v -27 1 -29
v -27 1 -31
v -27 1 -33
v -27 1 -34
v -23 0 -27
v -23 0 -28
v -23 1 -27
v -23 1 -28
v -22 0 -28
v -22 0 -29
v -22 0 -31
v -22 0 -33
v -22 0 -34
v -22 1 -28
v -22 1 -29
v -22 1 -31
v -22 1 -33
v -22 1 -34
v -18 0 -25
v -18 0 -27
v -18 0 -29
v -18 0 -31
v -18 0 -33
v -18 1 -25
v -18 1 -27
v -18 1 -29
v -18 1 -31
v -18 1 -33
v -17 0 -24
v -17 0 -25
v -17 0 -33
v -17 0 -34
v -17 1 -24
v -17 1 -25
v -17 1 -33
v -17 1 -34
v -6 0 -24
v -6 0 -26
v -6 0 -32
v -6 0 -33
v -6 0 -34
v -6 1 -24
v -6 1 -26
v -6 1 -32
v -6 1 -33
v -6 1 -34
v -5 0 -28
v -5 0 -29
v -5 0 -30
v -5 1 -28
v -5 1 -29
v -5 1 -30
v -1 0 -26
v -1 0 -27
v -1 0 -28
v -1 0 -30
v -1 0 -31
v -1 0 -32
v -1 1 -26
v -1 1 -27
v -1 1 -28
v -1 1 -30
v -1 1 -31
v -1 1 -32
v -45 0 -24
v -45 0 -25
v -45 0 -28
v -45 0 -29
v -45 0 -31
v -45 0 -33
v -45 0 -34
v -45 1 -24
v -45 1 -25
v -45 1 -28
v -45 1 -29
v -45 1 -31
v -45 1 -33
v -45 1 -34
v -44 0 -25
v -44 0 -26
v -44 1 -25
v -44 1 -26
v -43 0 -26
v -43 0 -27
v -43 1 -26
v -43 1 -27
v -42 0 -29
v -42 0 -30
v -42 1 -29
v -42 1 -30
v -41 0 -28
v -41 0 -29
v -41 1 -28
v -41 1 -29
v -37 0 -24
v -37 0 -27
v -37 0 -29
v -37 0 -31
v -37 0 -33
v -37 0 -34
v -37 1 -24
v -37 1 -27
v -37 1 -29
v -37 1 -31
v -37 1 -33
v -37 1 -34
v -33 0 -24
v -33 0 -27
v -33 0 -28
v -33 0 -30
v -33 0 -31
v -33 0 -32
v -33 1 -24
v -33 1 -27
v -33 1 -28
v -33 1 -30
v -33 1 -31
v -33 1 -32
v -29 0 -33
v -29 0 -34
v -29 1 -33
v -29 1 -34
v -28 0 -24
v -28 0 -27
v -28 0 -29
v -28 0 -31
v -28 0 -33
v -28 1 -24
v -28 1 -27
v -28 1 -29
v -28 1 -31
v -28 1 -33
v -24 0 -27
v -24 0 -29
v -24 0 -31
v -24 0 -33
v -24 0 -34
v -24 1 -27
v -24 1 -29
v -24 1 -31
v -24 1 -33
v -24 1 -34
v -22 0 -24
v -22 0 -25
v -22 1 -24
v -22 1 -25
v -21 0 -25
v -21 0 -26
v -21 1 -25
v -21 1 -26
v -20 0 -26
v -20 0 -27
v -20 1 -26
v -20 1 -27
v -19 0 -27
v -19 0 -29
v -19 0 -31
v -19 0 -33
v -19 0 -34
v -19 1 -27
v -19 1 -29
v -19 1 -31
v -19 1 -33
v -19 1 -34
v -15 0 -26
v -15 0 -27
v -15 0 -28
v -15 0 -30
v -15 0 -31
v -15 0 -32
v -15 1 -26
v -15 1 -27
v -15 1 -28
v -15 1 -30
v -15 1 -31
v -15 1 -32
v -11 0 -28
v -11 0 -29
v -11 0 -30
v -11 1 -28
v -11 1 -29
v -11 1 -30
v -10 0 -24
v -10 0 -26
v -10 0 -32
v -10 0 -33
v -10 0 -34
v -10 1 -24
v -10 1 -26
v -10 1 -32
v -10 1 -33
v -10 1 -34
v 1 0 -24
v 1 0 -25
v 1 0 -33
v 1 0 -34
v 1 1 -24
v 1 1 -25
v 1 1 -33
v 1 1 -34
v 2 0 -25
v 2 0 -27
v 2 0 -29
v 2 0 -31
v 2 0 -33
v 2 1 -25
v 2 1 -27
v 2 1 -29
v 2 1 -31
v 2 1 -33
v -48 0 -24
v -48 1 -24
v -45 0 -24
v -45 1 -24
v -40 0 -24
v -40 1 -24
v -37 0 -24
v -37 1 -24
v -36 0 -24
v -36 1 -24
v -33 0 -24
v -33 1 -24
v -31 0 -24
v -31 1 -24
v -28 0 -24
v -28 1 -24
v -27 0 -24
v -27 1 -24
v -22 0 -24
v -22 1 -24
v -17 0 -24
v -17 1 -24
v -10 0 -24
v -10 1 -24
v -6 0 -24
v -6 1 -24
v 1 0 -24
v 1 1 -24
v -45 0 -25
v -45 1 -25
v -44 0 -25
v -44 1 -25
v -41 0 -25
v -41 1 -25
v -40 0 -25
v -40 1 -25
v -22 0 -25
v -22 1 -25
v -21 0 -25
v -21 1 -25
v -18 0 -25
v -18 1 -25
v -17 0 -25
v -17 1 -25
v 1 0 -25
v 1 1 -25
v 2 0 -25
v 2 1 -25
v -44 0 -26
v -44 1 -26
v -43 0 -26
v -43 1 -26
v -42 0 -26
v -42 1 -26
v -41 0 -26
v -41 1 -26
v -21 0 -26
v -21 1 -26
v -20 0 -26
v -20 1 -26
v -43 0 -27
v -43 1 -27
v -42 0 -27
v -42 1 -27
v -20 0 -27
v -20 1 -27
v -19 0 -27
v -19 1 -27
v -33 0 -28
v -33 1 -28
v -31 0 -28
v -31 1 -28
v -15 0 -28
v -15 1 -28
v -11 0 -28
v -11 1 -28
v -5 0 -28
v -5 1 -28
v -1 0 -28
v -1 1 -28
v -33 0 -32
v -33 1 -32
v -31 0 -32
v -31 1 -32
v -15 0 -32
v -15 1 -32
v -10 0 -32
v -10 1 -32
v -6 0 -32
v -6 1 -32
v -1 0 -32
v -1 1 -32
v -15 0 -26
v -15 1 -26
v -10 0 -26
v -10 1 -26
v -6 0 -26
v -6 1 -26
v -1 0 -26
v -1 1 -26
v -24 0 -27
v -24 1 -27
v -23 0 -27
v -23 1 -27
v -45 0 -28
v -45 1 -28
v -44 0 -28
v -44 1 -28
v -41 0 -28
v -41 1 -28
v -40 0 -28
v -40 1 -28
v -23 0 -28
v -23 1 -28
v -22 0 -28
v -22 1 -28
v -44 0 -29
v -44 1 -29
v -43 0 -29
v -43 1 -29
v -42 0 -29
v -42 1 -29
v -41 0 -29
v -41 1 -29
v -43 0 -30
v -43 1 -30
v -42 0 -30
v -42 1 -30
v -33 0 -30
v -33 1 -30
v -31 0 -30
v -31 1 -30
v -15 0 -30
v -15 1 -30
v -11 0 -30
v -11 1 -30
v -5 0 -30
v -5 1 -30
v -1 0 -30
v -1 1 -30
v -36 0 -33
v -36 1 -33
v -35 0 -33
v -35 1 -33
v -29 0 -33
v -29 1 -33
v -28 0 -33
v -28 1 -33
v -18 0 -33
v -18 1 -33
v -17 0 -33
v -17 1 -33
v 1 0 -33
v 1 1 -33
v 2 0 -33
v 2 1 -33
v -48 0 -34
v -48 1 -34
v -45 0 -34
v -45 1 -34
v -40 0 -34
v -40 1 -34
v -37 0 -34
v -37 1 -34
v -35 0 -34
v -35 1 -34
v -29 0 -34
v -29 1 -34
v -27 0 -34
v -27 1 -34
v -24 0 -34
v -24 1 -34
v -22 0 -34
v -22 1 -34
v -19 0 -34
v -19 1 -34
v -17 0 -34
v -17 1 -34
v -10 0 -34
v -10 1 -34
v -6 0 -34
v -6 1 -34
v 1 0 -34
v 1 1 -34
v -48 0 -24
v -45 0 -24
v -40 0 -24
v -37 0 -24
v -36 0 -24
v -33 0 -24
v -31 0 -24
v -28 0 -24
v -27 0 -24
v -22 0 -24
v -17 0 -24
v -10 0 -24
v -6 0 -24
v 1 0 -24
v -45 0 -25
v -44 0 -25
v -41 0 -25
v -40 0 -25
v -22 0 -25
v -21 0 -25
v -18 0 -25
v -17 0 -25
v 1 0 -25
v 2 0 -25
v -44 0 -26
v -43 0 -26
v -42 0 -26
v -41 0 -26
v -21 0 -26
v -20 0 -26
v -15 0 -26
v -10 0 -26
v -6 0 -26
v -1 0 -26
v -48 0 -27
v -43 0 -27
v -42 0 -27
v -37 0 -27
v -36 0 -27
v -33 0 -27
v -31 0 -27
v -28 0 -27
v -27 0 -27
v -24 0 -27
v -23 0 -27
v -20 0 -27
v -19 0 -27
v -18 0 -27
v -15 0 -27
v -1 0 -27
v 2 0 -27
v -45 0 -28
v -44 0 -28
v -41 0 -28
v -40 0 -28
v -33 0 -28
v -31 0 -28
v -23 0 -28
v -22 0 -28
v -15 0 -28
v -11 0 -28
v -5 0 -28
v -1 0 -28
v -48 0 -29
v -45 0 -29
v -44 0 -29
v -43 0 -29
v -42 0 -29
v -41 0 -29
v -40 0 -29
v -37 0 -29
v -36 0 -29
v -28 0 -29
v -27 0 -29
v -24 0 -29
v -22 0 -29
v -19 0 -29
v -18 0 -29
v -11 0 -29
v -5 0 -29
v 2 0 -29
v -43 0 -30
v -42 0 -30
v -33 0 -30
v -31 0 -30
v -15 0 -30
v -11 0 -30
v -5 0 -30
v -1 0 -30
v -48 0 -31
v -45 0 -31
v -40 0 -31
v -37 0 -31
v -36 0 -31
v -33 0 -31
v -31 0 -31
v -28 0 -31
v -27 0 -31
v -24 0 -31
v -22 0 -31
v -19 0 -31
v -18 0 -31
v -15 0 -31
v -1 0 -31
v 2 0 -31
v -33 0 -32
v -31 0 -32
v -15 0 -32
v -10 0 -32
v -6 0 -32
v -1 0 -32
v -48 0 -33
v -45 0 -33
v -40 0 -33
v -37 0 -33
v -36 0 -33
v -35 0 -33
v -29 0 -33
v -28 0 -33
v -27 0 -33
v -24 0 -33
v -22 0 -33
v -19 0 -33
v -18 0 -33
v -17 0 -33
v -10 0 -33
v -6 0 -33
v 1 0 -33
v 2 0 -33
v -48 0 -34
v -45 0 -34
v -40 0 -34
v -37 0 -34
v -35 0 -34
v -29 0 -34
v -27 0 -34
v -24 0 -34
v -22 0 -34
v -19 0 -34
v -17 0 -34
v -10 0 -34
v -6 0 -34
v 1 0 -34
v -48 1 -24
v -45 1 -24
v -40 1 -24
v -37 1 -24
v -36 1 -24
v -33 1 -24
v -31 1 -24
v -28 1 -24
v -27 1 -24
v -22 1 -24
v -17 1 -24
v -10 1 -24
v -6 1 -24
v 1 1 -24
v -45 1 -25
v -44 1 -25
v -41 1 -25
v -40 1 -25
v -22 1 -25
v -21 1 -25
v -18 1 -25
v -17 1 -25
v 1 1 -25
v 2 1 -25
v -44 1 -26
v -43 1 -26
v -42 1 -26
v -41 1 -26
v -21 1 -26
v -20 1 -26
v -15 1 -26
v -10 1 -26
v -6 1 -26
v -1 1 -26
v -48 1 -27
v -43 1 -27
v -42 1 -27
v -37 1 -27
v -36 1 -27
v -33 1 -27
v -31 1 -27
v -28 1 -27
v -27 1 -27
v -24 1 -27
v -23 1 -27
v -20 1 -27
v -19 1 -27
v -18 1 -27
v -15 1 -27
v -1 1 -27
v 2 1 -27
v -45 1 -28
v -44 1 -28
v -41 1 -28
v -40 1 -28
v -33 1 -28
v -31 1 -28
v -23 1 -28
v -22 1 -28
v -15 1 -28
v -11 1 -28
v -5 1 -28
v -1 1 -28
v -48 1 -29
v -45 1 -29
v -44 1 -29
v -43 1 -29
v -42 1 -29
v -41 1 -29
v -40 1 -29
v -37 1 -29
v -36 1 -29
v -28 1 -29
v -27 1 -29
v -24 1 -29
v -22 1 -29
v -19 1 -29
v -18 1 -29
v -11 1 -29
v -5 1 -29
v 2 1 -29
v -43 1 -30
v -42 1 -30
v -33 1 -30
v -31 1 -30
v -15 1 -30
v -11 1 -30
v -5 1 -30
v -1 1 -30
v -48 1 -31
v -45 1 -31
v -40 1 -31
v -37 1 -31
v -36 1 -31
v -33 1 -31
v -31 1 -31
v -28 1 -31
v -27 1 -31
v -24 1 -31
v -22 1 -31
v -19 1 -31
v -18 1 -31
v -15 1 -31
v -1 1 -31
v 2 1 -31
v -33 1 -32
v -31 1 -32
v -15 1 -32
v -10 1 -32
v -6 1 -32
v -1 1 -32
v -48 1 -33
v -45 1 -33
v -40 1 -33
v -37 1 -33
v -36 1 -33
v -35 1 -33
v -29 1 -33
v -28 1 -33
v -27 1 -33
v -24 1 -33
v -22 1 -33
v -19 1 -33
v -18 1 -33
v -17 1 -33
v -10 1 -33
v -6 1 -33
v 1 1 -33
v 2 1 -33
v -48 1 -34
v -45 1 -34
v -40 1 -34
v -37 1 -34
v -35 1 -34
v -29 1 -34
v -27 1 -34
v -24 1 -34
v -22 1 -34
v -19 1 -34
v -17 1 -34
v -10 1 -34
v -6 1 -34
v 1 1 -34

# faces
f 7/5/1 2/5/1 1/5/1
f 8/1/1 3/1/1 2/1/1
f 8/5/1 2/5/1 7/5/1
f 9/2/1 4/2/1 3/2/1
f 9/1/1 3/1/1 8/1/1
f 10/3/1 5/3/1 4/3/1
f 10/2/1 4/2/1 9/2/1
f 11/4/1 6/4/1 5/4/1
f 11/3/1 5/3/1 10/3/1
f 12/4/1 6/4/1 11/4/1
f 15/1/1 14/1/1 13/1/1
f 16/1/1 14/1/1 15/1/1
f 19/2/1 18/2/1 17/2/1
f 20/2/1 18/2/1 19/2/1
f 23/5/1 22/5/1 21/5/1
f 24/5/1 22/5/1 23/5/1
f 27/5/1 26/5/1 25/5/1
f 28/5/1 26/5/1 27/5/1
f 36/5/1 30/5/1 29/5/1
f 37/5/1 30/5/1 36/5/1
f 38/1/1 32/1/1 31/1/1
f 39/2/1 33/2/1 32/2/1
f 39/1/1 32/1/1 38/1/1
f 40/3/1 34/3/1 33/3/1
f 40/2/1 33/2/1 39/2/1
f 41/4/1 35/4/1 34/4/1
f 41/3/1 34/3/1 40/3/1
f 42/4/1 35/4/1 41/4/1
f 48/5/1 44/5/1 43/5/1
f 49/1/1 45/1/1 44/1/1
f 49/5/1 44/5/1 48/5/1
f 50/2/1 46/2/1 45/2/1
f 50/1/1 45/1/1 49/1/1
f 51/3/1 47/3/1 46/3/1
f 51/2/1 46/2/1 50/2/1
f 52/3/1 47/3/1 51/3/1
f 55/4/1 54/4/1 53/4/1
f 56/4/1 54/4/1 55/4/1
f 63/5/1 58/5/1 57/5/1
f 64/1/1 59/1/1 58/1/1
f 64/5/1 58/5/1 63/5/1
f 65/1/1 59/1/1 64/1/1
f 66/2/1 61/2/1 60/2/1
f 67/3/1 62/3/1 61/3/1
f 67/2/1 61/2/1 66/2/1
f 68/3/1 62/3/1 67/3/1
f 75/5/1 70/5/1 69/5/1
f 76/1/1 71/1/1 70/1/1
f 76/5/1 70/5/1 75/5/1
f 77/2/1 72/2/1 71/2/1
f 77/1/1 71/1/1 76/1/1
f 78/3/1 73/3/1 72/3/1
f 78/2/1 72/2/1 77/2/1
f 79/4/1 74/4/1 73/4/1
f 79/3/1 73/3/1 78/3/1
f 80/4/1 74/4/1 79/4/1
f 83/1/1 82/1/1 81/1/1
f 84/1/1 82/1/1 83/1/1
f 90/1/1 86/1/1 85/1/1
f 91/2/1 87/2/1 86/2/1
f 91/1/1 86/1/1 90/1/1
f 92/3/1 88/3/1 87/3/1
f 92/2/1 87/2/1 91/2/1
f 93/4/1 89/4/1 88/4/1
f 93/3/1 88/3/1 92/3/1
f 94/4/1 89/4/1 93/4/1
f 100/5/1 96/5/1 95/5/1
f 101/1/1 97/1/1 96/1/1
f 101/5/1 96/5/1 100/5/1
f 102/2/1 98/2/1 97/2/1
f 102/1/1 97/1/1 101/1/1
f 103/3/1 99/3/1 98/3/1
f 103/2/1 98/2/1 102/2/1
f 104/3/1 99/3/1 103/3/1
f 109/5/1 106/5/1 105/5/1
f 110/5/1 106/5/1 109/5/1
f 111/4/1 108/4/1 107/4/1
f 112/4/1 108/4/1 111/4/1
f 118/5/1 114/5/1 113/5/1
f 119/5/1 114/5/1 118/5/1
f 120/3/1 116/3/1 115/3/1
f 121/4/1 117/4/1 116/4/1
f 121/3/1 116/3/1 120/3/1
f 122/4/1 117/4/1 121/4/1
f 126/1/1 124/1/1 123/1/1
f 127/2/1 125/2/1 124/2/1
f 127/1/1 124/1/1 126/1/1
f 128/2/1 125/2/1 127/2/1
f 135/5/1 130/5/1 129/5/1
f 136/1/1 131/1/1 130/1/1
f 136/5/1 130/5/1 135/5/1
f 137/1/1 131/1/1 136/1/1
f 138/2/1 133/2/1 132/2/1
f 139/3/1 134/3/1 133/3/1
f 139/2/1 133/2/1 138/2/1
f 140/3/1 134/3/1 139/3/1
f 141/5/2 142/5/2 148/5/2
f 148/5/2 142/5/2 149/5/2
f 143/1/2 144/1/2 150/1/2
f 144/2/2 145/2/2 151/2/2
f 150/1/2 144/1/2 151/1/2
f 145/3/2 146/3/2 152/3/2
f 151/2/2 145/2/2 152/2/2
f 146/4/2 147/4/2 153/4/2
f 152/3/2 146/3/2 153/3/2
f 153/4/2 147/4/2 154/4/2
f 155/5/2 156/5/2 157/5/2
f 157/5/2 156/5/2 158/5/2
f 159/5/2 160/5/2 161/5/2
f 161/5/2 160/5/2 162/5/2
f 163/2/2 164/2/2 165/2/2
f 165/2/2 164/2/2 166/2/2
f 167/1/2 168/1/2 169/1/2
f 169/1/2 168/1/2 170/1/2
f 171/5/2 172/5/2 177/5/2
f 172/1/2 173/1/2 178/1/2
f 177/5/2 172/5/2 178/5/2
f 173/2/2 174/2/2 179/2/2
f 178/1/2 173/1/2 179/1/2
f 174/3/2 175/3/2 180/3/2
f 179/2/2 174/2/2 180/2/2
f 175/4/2 176/4/2 181/4/2
f 180/3/2 175/3/2 181/3/2
f 181/4/2 176/4/2 182/4/2
f 183/5/2 184/5/2 189/5/2
f 184/1/2 185/1/2 190/1/2
f 189/5/2 184/5/2 190/5/2
f 190/1/2 185/1/2 191/1/2
f 186/2/2 187/2/2 192/2/2
f 187/3/2 188/3/2 193/3/2
f 192/2/2 187/2/2 193/2/2
f 193/3/2 188/3/2 194/3/2
f 195/4/2 196/4/2 197/4/2
f 197/4/2 196/4/2 198/4/2
f 199/5/2 200/5/2 204/5/2
f 200/1/2 201/1/2 205/1/2
f 204/5/2 200/5/2 205/5/2
f 201/2/2 202/2/2 206/2/2
f 205/1/2 201/1/2 206/1/2
f 202/3/2 203/3/2 207/3/2
f 206/2/2 202/2/2 207/2/2
f 207/3/2 203/3/2 208/3/2
f 209/1/2 210/1/2 214/1/2
f 210/2/2 211/2/2 215/2/2
f 214/1/2 210/1/2 215/1/2
f 211/3/2 212/3/2 216/3/2
f 215/2/2 211/2/2 216/2/2
f 212/4/2 213/4/2 217/4/2
f 216/3/2 212/3/2 217/3/2
f 217/4/2 213/4/2 218/4/2
f 219/5/2 220/5/2 221/5/2
f 221/5/2 220/5/2 222/5/2
f 223/5/2 224/5/2 225/5/2
f 225/5/2 224/5/2 226/5/2
f 227/5/2 228/5/2 229/5/2
f 229/5/2 228/5/2 230/5/2
f 231/1/2 232/1/2 236/1/2
f 232/2/2 233/2/2 237/2/2
f 236/1/2 232/1/2 237/1/2
f 233/3/2 234/3/2 238/3/2
f 237/2/2 233/2/2 238/2/2
f 234/4/2 235/4/2 239/4/2
f 238/3/2 234/3/2 239/3/2
f 239/4/2 235/4/2 240/4/2
f 241/5/2 242/5/2 247/5/2
f 242/1/2 243/1/2 248/1/2
f 247/5/2 242/5/2 248/5/2
f 248/1/2 243/1/2 249/1/2
f 244/2/2 245/2/2 250/2/2
f 245/3/2 246/3/2 251/3/2
f 250/2/2 245/2/2 251/2/2
f 251/3/2 246/3/2 252/3/2
f 253/1/2 254/1/2 256/1/2
f 254/2/2 255/2/2 257/2/2
f 256/1/2 254/1/2 257/1/2
f 257/2/2 255/2/2 258/2/2
f 259/5/2 260/5/2 264/5/2
f 264/5/2 260/5/2 265/5/2
f 261/3/2 262/3/2 266/3/2
f 262/4/2 263/4/2 267/4/2
f 266/3/2 262/3/2 267/3/2
f 267/4/2 263/4/2 268/4/2
f 269/5/2 270/5/2 273/5/2
f 273/5/2 270/5/2 274/5/2
f 271/4/2 272/4/2 275/4/2
f 275/4/2 272/4/2 276/4/2
f 277/5/2 278/5/2 282/5/2
f 278/1/2 279/1/2 283/1/2
f 282/5/2 278/5/2 283/5/2
f 279/2/2 280/2/2 284/2/2
f 283/1/2 279/1/2 284/1/2
f 280/3/2 281/3/2 285/3/2
f 284/2/2 280/2/2 285/2/2
f 285/3/2 281/3/2 286/3/2
f 289/5/3 288/5/3 287/5/3
f 290/5/3 288/5/3 289/5/3
f 293/5/3 292/5/3 291/5/3
f 294/5/3 292/5/3 293/5/3
f 297/5/3 296/5/3 295/5/3
f 298/5/3 296/5/3 297/5/3
f 301/5/3 300/5/3 299/5/3
f 302/5/3 300/5/3 301/5/3
f 305/5/3 304/5/3 303/5/3
f 306/5/3 304/5/3 305/5/3
f 309/5/3 308/5/3 307/5/3
f 310/5/3 308/5/3 309/5/3
f 313/5/3 312/5/3 311/5/3
f 314/5/3 312/5/3 313/5/3
f 317/5/3 316/5/3 315/5/3
f 318/5/3 316/5/3 317/5/3
f 321/5/3 320/5/3 319/5/3
f 322/5/3 320/5/3 321/5/3
f 325/5/3 324/5/3 323/5/3
f 326/5/3 324/5/3 325/5/3
f 329/5/3 328/5/3 327/5/3
f 330/5/3 328/5/3 329/5/3
f 333/5/3 332/5/3 331/5/3
f 334/5/3 332/5/3 333/5/3
f 337/5/3 336/5/3 335/5/3
f 338/5/3 336/5/3 337/5/3
f 341/5/3 340/5/3 339/5/3
f 342/5/3 340/5/3 341/5/3
f 345/5/3 344/5/3 343/5/3
f 346/5/3 344/5/3 345/5/3
f 349/1/3 348/1/3 347/1/3
f 350/1/3 348/1/3 349/1/3
f 353/1/3 352/1/3 351/1/3
f 354/1/3 352/1/3 353/1/3
f 357/1/3 356/1/3 355/1/3
f 358/1/3 356/1/3 357/1/3
f 361/1/3 360/1/3 359/1/3
f 362/1/3 360/1/3 361/1/3
f 365/1/3 364/1/3 363/1/3
f 366/1/3 364/1/3 365/1/3
f 369/3/3 368/3/3 367/3/3
f 370/3/3 368/3/3 369/3/3
f 373/3/3 372/3/3 371/3/3
f 374/3/3 372/3/3 373/3/3
f 377/3/3 376/3/3 375/3/3
f 378/3/3 376/3/3 377/3/3
f 379/5/4 380/5/4 381/5/4
f 381/5/4 380/5/4 382/5/4
f 383/5/4 384/5/4 385/5/4
f 385/5/4 384/5/4 386/5/4
f 387/5/4 388/5/4 389/5/4
f 389/5/4 388/5/4 390/5/4
f 391/1/4 392/1/4 393/1/4
f 393/1/4 392/1/4 394/1/4
f 395/1/4 396/1/4 397/1/4
f 397/1/4 396/1/4 398/1/4
f 399/1/4 400/1/4 401/1/4
f 401/1/4 400/1/4 402/1/4
f 403/1/4 404/1/4 405/1/4
f 405/1/4 404/1/4 406/1/4
f 407/1/4 408/1/4 409/1/4
f 409/1/4 408/1/4 410/1/4
f 411/2/4 412/2/4 413/2/4
f 413/2/4 412/2/4 414/2/4
f 415/2/4 416/2/4 417/2/4
f 417/2/4 416/2/4 418/2/4
f 419/2/4 420/2/4 421/2/4
f 421/2/4 420/2/4 422/2/4
f 423/2/4 424/2/4 425/2/4
f 425/2/4 424/2/4 426/2/4
f 427/3/4 428/3/4 429/3/4
f 429/3/4 428/3/4 430/3/4
f 431/3/4 432/3/4 433/3/4
f 433/3/4 432/3/4 434/3/4
f 435/3/4 436/3/4 437/3/4
f 437/3/4 436/3/4 438/3/4
f 439/3/4 440/3/4 441/3/4
f 441/3/4 440/3/4 442/3/4
f 443/4/4 444/4/4 445/4/4
f 445/4/4 444/4/4 446/4/4
f 447/4/4 448/4/4 449/4/4
f 449/4/4 448/4/4 450/4/4
f 451/4/4 452/4/4 453/4/4
f 453/4/4 452/4/4 454/4/4
f 455/4/4 456/4/4 457/4/4
f 457/4/4 456/4/4 458/4/4
f 459/4/4 460/4/4 461/4/4
f 461/4/4 460/4/4 462/4/4
f 463/4/4 464/4/4 465/4/4
f 465/4/4 464/4/4 466/4/4
f 467/4/4 468/4/4 469/4/4
f 469/4/4 468/4/4 470/4/4
f 485/5/5 472/5/5 471/5/5
f 488/5/5 474/5/5 473/5/5
f 489/5/5 480/5/5 479/5/5
f 492/5/5 482/5/5 481/5/5
f 493/5/5 484/5/5 483/5/5
f 495/5/5 486/5/5 485/5/5
f 498/5/5 488/5/5 487/5/5
f 499/5/5 490/5/5 489/5/5
f 501/5/5 492/5/5 491/5/5
f 501/5/5 482/5/5 492/5/5
f 502/5/5 482/5/5 501/5/5
f 503/5/5 494/5/5 493/5/5
f 503/5/5 493/5/5 483/5/5
f 504/5/5 494/5/5 503/5/5
f 505/5/5 496/5/5 495/5/5
f 505/5/5 485/5/5 471/5/5
f 505/5/5 495/5/5 485/5/5
f 506/5/5 496/5/5 505/5/5
f 507/5/5 498/5/5 497/5/5
f 508/5/5 488/5/5 498/5/5
f 508/5/5 474/5/5 488/5/5
f 508/5/5 498/5/5 507/5/5
f 509/5/5 476/5/5 475/5/5
f 510/5/5 476/5/5 509/5/5
f 511/5/5 478/5/5 477/5/5
f 512/5/5 478/5/5 511/5/5
f 513/5/5 500/5/5 499/5/5
f 513/5/5 489/5/5 479/5/5
f 513/5/5 499/5/5 489/5/5
f 514/5/5 500/5/5 513/5/5
f 515/5/5 500/5/5 514/5/5
f 516/5/5 500/5/5 515/5/5
f 518/5/5 501/5/5 491/5/5
f 519/5/5 501/5/5 518/5/5
f 520/5/5 494/5/5 504/5/5
f 521/5/5 494/5/5 520/5/5
f 522/1/5 508/1/5 507/1/5
f 522/1/5 506/1/5 505/1/5
f 522/1/5 507/1/5 506/1/5
f 523/1/5 508/1/5 522/1/5
f 524/1/5 508/1/5 523/1/5
f 525/1/5 508/1/5 524/1/5
f 526/1/5 510/1/5 509/1/5
f 527/1/5 512/1/5 511/1/5
f 528/1/5 517/1/5 516/1/5
f 528/1/5 516/1/5 515/1/5
f 529/1/5 517/1/5 528/1/5
f 530/1/5 519/1/5 518/1/5
f 533/1/5 521/1/5 520/1/5
f 534/1/5 522/1/5 505/1/5
f 535/1/5 522/1/5 534/1/5
f 536/1/5 524/1/5 523/1/5
f 537/1/5 524/1/5 536/1/5
f 538/1/5 524/1/5 537/1/5
f 539/1/5 524/1/5 538/1/5
f 540/1/5 508/1/5 525/1/5
f 541/1/5 508/1/5 540/1/5
f 542/1/5 526/1/5 509/1/5
f 542/1/5 527/1/5 526/1/5
f 543/1/5 512/1/5 527/1/5
f 543/1/5 527/1/5 542/1/5
f 544/1/5 514/1/5 513/1/5
f 545/1/5 514/1/5 544/1/5
f 546/1/5 517/1/5 529/1/5
f 547/1/5 517/1/5 546/1/5
f 548/1/5 531/1/5 530/1/5
f 548/1/5 530/1/5 518/1/5
f 549/1/5 531/1/5 548/1/5
f 550/1/5 533/1/5 532/1/5
f 551/1/5 521/1/5 533/1/5
f 551/1/5 533/1/5 550/1/5
f 552/2/5 538/2/5 537/2/5
f 553/2/5 538/2/5 552/2/5
f 554/2/5 543/2/5 542/2/5
f 555/2/5 543/2/5 554/2/5
f 556/2/5 549/2/5 548/2/5
f 557/2/5 549/2/5 556/2/5
f 558/2/5 551/2/5 550/2/5
f 559/2/5 551/2/5 558/2/5
f 560/2/5 535/2/5 534/2/5
f 561/2/5 535/2/5 560/2/5
f 562/2/5 541/2/5 540/2/5
f 563/2/5 541/2/5 562/2/5
f 564/2/5 554/2/5 542/2/5
f 565/2/5 554/2/5 564/2/5
f 566/2/5 543/2/5 555/2/5
f 567/2/5 543/2/5 566/2/5
f 568/2/5 545/2/5 544/2/5
f 569/2/5 545/2/5 568/2/5
f 570/2/5 547/2/5 546/2/5
f 571/2/5 547/2/5 570/2/5
f 572/2/5 556/2/5 548/2/5
f 573/2/5 556/2/5 572/2/5
f 574/2/5 551/2/5 559/2/5
f 575/2/5 551/2/5 574/2/5
f 576/3/5 565/3/5 564/3/5
f 577/3/5 567/3/5 566/3/5
f 578/3/5 573/3/5 572/3/5
f 581/3/5 575/3/5 574/3/5
f 582/3/5 561/3/5 560/3/5
f 583/3/5 561/3/5 582/3/5
f 584/3/5 563/3/5 562/3/5
f 585/3/5 563/3/5 584/3/5
f 586/3/5 576/3/5 564/3/5
f 586/3/5 577/3/5 576/3/5
f 587/3/5 577/3/5 586/3/5
f 588/3/5 567/3/5 577/3/5
f 588/3/5 577/3/5 587/3/5
f 589/3/5 567/3/5 588/3/5
f 590/3/5 569/3/5 568/3/5
f 591/3/5 569/3/5 590/3/5
f 592/3/5 571/3/5 570/3/5
f 593/3/5 571/3/5 592/3/5
f 594/3/5 579/3/5 578/3/5
f 594/3/5 578/3/5 572/3/5
f 595/3/5 579/3/5 594/3/5
f 596/3/5 579/3/5 595/3/5
f 597/3/5 581/3/5 580/3/5
f 598/3/5 575/3/5 581/3/5
f 598/3/5 581/3/5 597/3/5
f 599/3/5 575/3/5 598/3/5
f 600/4/5 583/4/5 582/4/5
f 601/4/5 583/4/5 600/4/5
f 602/4/5 585/4/5 584/4/5
f 603/4/5 585/4/5 602/4/5
f 604/4/5 588/4/5 587/4/5
f 605/4/5 588/4/5 604/4/5
f 606/4/5 591/4/5 590/4/5
f 607/4/5 591/4/5 606/4/5
f 608/4/5 593/4/5 592/4/5
f 609/4/5 593/4/5 608/4/5
f 610/4/5 596/4/5 595/4/5
f 611/4/5 596/4/5 610/4/5
f 612/4/5 598/4/5 597/4/5
f 613/4/5 598/4/5 612/4/5
f 614/5/6 615/5/6 628/5/6
f 616/5/6 617/5/6 631/5/6
f 622/5/6 623/5/6 632/5/6
f 624/5/6 625/5/6 635/5/6
f 626/5/6 627/5/6 636/5/6
f 628/5/6 629/5/6 638/5/6
f 630/5/6 631/5/6 641/5/6
f 632/5/6 633/5/6 642/5/6
f 634/5/6 635/5/6 644/5/6
f 635/5/6 625/5/6 644/5/6
f 644/5/6 625/5/6 645/5/6
f 636/5/6 637/5/6 646/5/6
f 626/5/6 636/5/6 646/5/6
f 646/5/6 637/5/6 647/5/6
f 638/5/6 639/5/6 648/5/6
f 614/5/6 628/5/6 648/5/6
f 628/5/6 638/5/6 648/5/6
f 648/5/6 639/5/6 649/5/6
f 640/5/6 641/5/6 650/5/6
f 641/5/6 631/5/6 651/5/6
f 631/5/6 617/5/6 651/5/6
f 650/5/6 641/5/6 651/5/6
f 618/5/6 619/5/6 652/5/6
f 652/5/6 619/5/6 653/5/6
f 620/5/6 621/5/6 654/5/6
f 654/5/6 621/5/6 655/5/6
f 642/5/6 643/5/6 656/5/6
f 622/5/6 632/5/6 656/5/6
f 632/5/6 642/5/6 656/5/6
f 656/5/6 643/5/6 657/5/6
f 657/5/6 643/5/6 658/5/6
f 658/5/6 643/5/6 659/5/6
f 634/5/6 644/5/6 661/5/6
f 661/5/6 644/5/6 662/5/6
f 647/5/6 637/5/6 663/5/6
f 663/5/6 637/5/6 664/5/6
f 650/1/6 651/1/6 665/1/6
f 648/1/6 649/1/6 665/1/6
f 649/1/6 650/1/6 665/1/6
f 665/1/6 651/1/6 666/1/6
f 666/1/6 651/1/6 667/1/6
f 667/1/6 651/1/6 668/1/6
f 652/1/6 653/1/6 669/1/6
f 654/1/6 655/1/6 670/1/6
f 659/1/6 660/1/6 671/1/6
f 658/1/6 659/1/6 671/1/6
f 671/1/6 660/1/6 672/1/6
f 661/1/6 662/1/6 673/1/6
f 663/1/6 664/1/6 676/1/6
f 648/1/6 665/1/6 677/1/6
f 677/1/6 665/1/6 678/1/6
f 666/1/6 667/1/6 679/1/6
f 679/1/6 667/1/6 680/1/6
f 680/1/6 667/1/6 681/1/6
f 681/1/6 667/1/6 682/1/6
f 668/1/6 651/1/6 683/1/6
f 683/1/6 651/1/6 684/1/6
f 652/1/6 669/1/6 685/1/6
f 669/1/6 670/1/6 685/1/6
f 670/1/6 655/1/6 686/1/6
f 685/1/6 670/1/6 686/1/6
f 656/1/6 657/1/6 687/1/6
f 687/1/6 657/1/6 688/1/6
f 672/1/6 660/1/6 689/1/6
f 689/1/6 660/1/6 690/1/6
f 673/1/6 674/1/6 691/1/6
f 661/1/6 673/1/6 691/1/6
f 691/1/6 674/1/6 692/1/6
f 675/1/6 676/1/6 693/1/6
f 676/1/6 664/1/6 694/1/6
f 693/1/6 676/1/6 694/1/6
f 680/2/6 681/2/6 695/2/6
f 695/2/6 681/2/6 696/2/6
f 685/2/6 686/2/6 697/2/6
f 697/2/6 686/2/6 698/2/6
f 691/2/6 692/2/6 699/2/6
f 699/2/6 692/2/6 700/2/6
f 693/2/6 694/2/6 701/2/6
f 701/2/6 694/2/6 702/2/6
f 677/2/6 678/2/6 703/2/6
f 703/2/6 678/2/6 704/2/6
f 683/2/6 684/2/6 705/2/6
f 705/2/6 684/2/6 706/2/6
f 685/2/6 697/2/6 707/2/6
f 707/2/6 697/2/6 708/2/6
f 698/2/6 686/2/6 709/2/6
f 709/2/6 686/2/6 710/2/6
f 687/2/6 688/2/6 711/2/6
f 711/2/6 688/2/6 712/2/6
f 689/2/6 690/2/6 713/2/6
f 713/2/6 690/2/6 714/2/6
f 691/2/6 699/2/6 715/2/6
f 715/2/6 699/2/6 716/2/6
f 702/2/6 694/2/6 717/2/6
f 717/2/6 694/2/6 718/2/6
f 707/3/6 708/3/6 719/3/6
f 709/3/6 710/3/6 720/3/6
f 715/3/6 716/3/6 721/3/6
f 717/3/6 718/3/6 724/3/6
f 703/3/6 704/3/6 725/3/6
f 725/3/6 704/3/6 726/3/6
f 705/3/6 706/3/6 727/3/6
f 727/3/6 706/3/6 728/3/6
f 707/3/6 719/3/6 729/3/6
f 719/3/6 720/3/6 729/3/6
f 729/3/6 720/3/6 730/3/6
f 720/3/6 710/3/6 731/3/6
f 730/3/6 720/3/6 731/3/6
f 731/3/6 710/3/6 732/3/6
f 711/3/6 712/3/6 733/3/6
f 733/3/6 712/3/6 734/3/6
f 713/3/6 714/3/6 735/3/6
f 735/3/6 714/3/6 736/3/6
f 721/3/6 722/3/6 737/3/6
f 715/3/6 721/3/6 737/3/6
f 737/3/6 722/3/6 738/3/6
f 738/3/6 722/3/6 739/3/6
f 723/3/6 724/3/6 740/3/6
f 724/3/6 718/3/6 741/3/6
f 740/3/6 724/3/6 741/3/6
f 741/3/6 718/3/6 742/3/6
f 725/4/6 726/4/6 743/4/6
f 743/4/6 726/4/6 744/4/6
f 727/4/6 728/4/6 745/4/6
f 745/4/6 728/4/6 746/4/6
f 730/4/6 731/4/6 747/4/6
f 747/4/6 731/4/6 748/4/6
f 733/4/6 734/4/6 749/4/6
f 749/4/6 734/4/6 750/4/6
f 735/4/6 736/4/6 751/4/6
f 751/4/6 736/4/6 752/4/6
f 738/4/6 739/4/6 753/4/6
f 753/4/6 739/4/6 754/4/6
f 740/4/6 741/4/6 755/4/6
f 755/4/6 741/4/6 756/4/6
