# MagicaVoxel @ Ephtracy

# group
g Wave 1

# material
mtllib Wave 1.mtl
usemtl palette

# normals
vn -1 0 0
vn 1 0 0
vn 0 0 1
vn 0 0 -1
vn 0 -1 0
vn 0 1 0

# texcoords
vt 0.0332031 0.5
vt 0.0371094 0.5
vt 0.0410156 0.5
vt 0.0449219 0.5
vt 0.0644531 0.5

# verts
v -48 0 -24
v -48 0 -27
v -48 0 -29
v -48 0 -31
v -48 0 -33
v -48 0 -34
v -48 1 -24
v -48 1 -27
v -48 1 -29
v -48 1 -31
v -48 1 -33
v -48 1 -34
v -44 0 -28
v -44 0 -29
v -44 1 -28
v -44 1 -29
v -43 0 -29
v -43 0 -30
v -43 1 -29
v -43 1 -30
v -42 0 -26
v -42 0 -27
v -42 1 -26
v -42 1 -27
v -41 0 -25
v -41 0 -26
v -41 1 -25
v -41 1 -26
v -40 0 -24
v -40 0 -25
v -40 0 -28
v -40 0 -29
v -40 0 -31
v -40 0 -33
v -40 0 -34
v -40 1 -24
v -40 1 -25
v -40 1 -28
v -40 1 -29
v -40 1 -31
v -40 1 -33
v -40 1 -34
v -36 0 -24
v -36 0 -27
v -36 0 -29
v -36 0 -31
v -36 0 -33
v -36 1 -24
v -36 1 -27
v -36 1 -29
v -36 1 -31
v -36 1 -33
v -35 0 -33
v -35 0 -34
v -35 1 -33
v -35 1 -34
v -31 0 -24
v -31 0 -27
v -31 0 -28
v -31 0 -30
v -31 0 -31
v -31 0 -32
v -31 1 -24
v -31 1 -27
v -31 1 -28
v -31 1 -30
v -31 1 -31
v -31 1 -32
v -27 0 -24
v -27 0 -27
v -27 0 -29
v -27 0 -31
v -27 0 -33
v -27 0 -34
v -27 1 -24
v -27 1 -27
v -27 1 -29
v -27 1 -31
v -27 1 -33
v -27 1 -34
v -23 0 -27
v -23 0 -28
v -23 1 -27
v -23 1 -28
v -22 0 -28
v -22 0 -29
v -22 0 -31
v -22 0 -33
v -22 0 -34
v -22 1 -28
v -22 1 -29
v -22 1 -31
v -22 1 -33
v -22 1 -34
v -18 0 -25
v -18 0 -27
v -18 0 -29
v -18 0 -31
v -18 0 -33
v -18 1 -25
v -18 1 -27
v -18 1 -29
v -18 1 -31
v -18 1 -33
v -17 0 -24
v -17 0 -25
v -17 0 -33
v -17 0 -34
v -17 1 -24
v -17 1 -25
v -17 1 -33
v -17 1 -34
v -7 0 -32
v -7 0 -33
v -7 0 -34
v -7 1 -32
v -7 1 -33
v -7 1 -34
v -6 0 -24
v -6 0 -26
v -6 1 -24
v -6 1 -26
v -4 0 -26
v -4 0 -27
v -4 0 -29
v -4 0 -31
v -4 0 -32
v -4 1 -26
v -4 1 -27
v -4 1 -29
v -4 1 -31
v -4 1 -32
v -45 0 -24
v -45 0 -25
v -45 0 -28
v -45 0 -29
v -45 0 -31
v -45 0 -33
v -45 0 -34
v -45 1 -24
v -45 1 -25
v -45 1 -28
v -45 1 -29
v -45 1 -31
v -45 1 -33
v -45 1 -34
v -44 0 -25
v -44 0 -26
v -44 1 -25
v -44 1 -26
v -43 0 -26
v -43 0 -27
v -43 1 -26
v -43 1 -27
v -42 0 -29
v -42 0 -30
v -42 1 -29
v -42 1 -30
v -41 0 -28
v -41 0 -29
v -41 1 -28
v -41 1 -29
v -37 0 -24
v -37 0 -27
v -37 0 -29
v -37 0 -31
v -37 0 -33
v -37 0 -34
v -37 1 -24
v -37 1 -27
v -37 1 -29
v -37 1 -31
v -37 1 -33
v -37 1 -34
v -33 0 -24
v -33 0 -27
v -33 0 -28
v -33 0 -30
v -33 0 -31
v -33 0 -32
v -33 1 -24
v -33 1 -27
v -33 1 -28
v -33 1 -30
v -33 1 -31
v -33 1 -32
v -29 0 -33
v -29 0 -34
v -29 1 -33
v -29 1 -34
v -28 0 -24
v -28 0 -27
v -28 0 -29
v -28 0 -31
v -28 0 -33
v -28 1 -24
v -28 1 -27
v -28 1 -29
v -28 1 -31
v -28 1 -33
v -24 0 -27
v -24 0 -29
v -24 0 -31
v -24 0 -33
v -24 0 -34
v -24 1 -27
v -24 1 -29
v -24 1 -31
v -24 1 -33
v -24 1 -34
v -22 0 -24
v -22 0 -25
v -22 1 -24
v -22 1 -25
v -21 0 -25
v -21 0 -26
v -21 1 -25
v -21 1 -26
v -20 0 -26
v -20 0 -27
v -20 1 -26
v -20 1 -27
v -19 0 -27
v -19 0 -29
v -19 0 -31
v -19 0 -33
v -19 0 -34
v -19 1 -27
v -19 1 -29
v -19 1 -31
v -19 1 -33
v -19 1 -34
v -15 0 -26
v -15 0 -27
v -15 0 -28
v -15 0 -30
v -15 0 -31
v -15 0 -32
v -15 1 -26
v -15 1 -27
v -15 1 -28
v -15 1 -30
v -15 1 -31
v -15 1 -32
v -11 0 -28
v -11 0 -29
v -11 0 -30
v -11 1 -28
v -11 1 -29
v -11 1 -30
v -10 0 -24
v -10 0 -26
v -10 0 -32
v -10 0 -33
v -10 0 -34
v -10 1 -24
v -10 1 -26
v -10 1 -32
v -10 1 -33
v -10 1 -34
v -2 0 -33
v -2 0 -34
v -2 1 -33
v -2 1 -34
v -1 0 -26
v -1 0 -27
v -1 0 -29
v -1 0 -31
v -1 0 -33
v -1 1 -26
v -1 1 -27
v -1 1 -29
v -1 1 -31
v -1 1 -33
v 1 0 -24
v 1 0 -26
v 1 1 -24
v 1 1 -26
v -48 0 -24
v -48 1 -24
v -45 0 -24
v -45 1 -24
v -40 0 -24
v -40 1 -24
v -37 0 -24
v -37 1 -24
v -36 0 -24
v -36 1 -24
v -33 0 -24
v -33 1 -24
v -31 0 -24
v -31 1 -24
v -28 0 -24
v -28 1 -24
v -27 0 -24
v -27 1 -24
v -22 0 -24
v -22 1 -24
v -17 0 -24
v -17 1 -24
v -10 0 -24
v -10 1 -24
v -6 0 -24
v -6 1 -24
v 1 0 -24
v 1 1 -24
v -45 0 -25
v -45 1 -25
v -44 0 -25
v -44 1 -25
v -41 0 -25
v -41 1 -25
v -40 0 -25
v -40 1 -25
v -22 0 -25
v -22 1 -25
v -21 0 -25
v -21 1 -25
v -18 0 -25
v -18 1 -25
v -17 0 -25
v -17 1 -25
v -44 0 -26
v -44 1 -26
v -43 0 -26
v -43 1 -26
v -42 0 -26
v -42 1 -26
v -41 0 -26
v -41 1 -26
v -21 0 -26
v -21 1 -26
v -20 0 -26
v -20 1 -26
v -43 0 -27
v -43 1 -27
v -42 0 -27
v -42 1 -27
v -20 0 -27
v -20 1 -27
v -19 0 -27
v -19 1 -27
v -33 0 -28
v -33 1 -28
v -31 0 -28
v -31 1 -28
v -15 0 -28
v -15 1 -28
v -11 0 -28
v -11 1 -28
v -33 0 -32
v -33 1 -32
v -31 0 -32
v -31 1 -32
v -15 0 -32
v -15 1 -32
v -10 0 -32
v -10 1 -32
v -7 0 -32
v -7 1 -32
v -4 0 -32
v -4 1 -32
v -15 0 -26
v -15 1 -26
v -10 0 -26
v -10 1 -26
v -6 0 -26
v -6 1 -26
v -4 0 -26
v -4 1 -26
v -1 0 -26
v -1 1 -26
v 1 0 -26
v 1 1 -26
v -24 0 -27
v -24 1 -27
v -23 0 -27
v -23 1 -27
v -45 0 -28
v -45 1 -28
v -44 0 -28
v -44 1 -28
v -41 0 -28
v -41 1 -28
v -40 0 -28
v -40 1 -28
v -23 0 -28
v -23 1 -28
v -22 0 -28
v -22 1 -28
v -44 0 -29
v -44 1 -29
v -43 0 -29
v -43 1 -29
v -42 0 -29
v -42 1 -29
v -41 0 -29
v -41 1 -29
v -43 0 -30
v -43 1 -30
v -42 0 -30
v -42 1 -30
v -33 0 -30
v -33 1 -30
v -31 0 -30
v -31 1 -30
v -15 0 -30
v -15 1 -30
v -11 0 -30
v -11 1 -30
v -36 0 -33
v -36 1 -33
v -35 0 -33
v -35 1 -33
v -29 0 -33
v -29 1 -33
v -28 0 -33
v -28 1 -33
v -18 0 -33
v -18 1 -33
v -17 0 -33
v -17 1 -33
v -2 0 -33
v -2 1 -33
v -1 0 -33
v -1 1 -33
v -48 0 -34
v -48 1 -34
v -45 0 -34
v -45 1 -34
v -40 0 -34
v -40 1 -34
v -37 0 -34
v -37 1 -34
v -35 0 -34
v -35 1 -34
v -29 0 -34
v -29 1 -34
v -27 0 -34
v -27 1 -34
v -24 0 -34
v -24 1 -34
v -22 0 -34
v -22 1 -34
v -19 0 -34
v -19 1 -34
v -17 0 -34
v -17 1 -34
v -10 0 -34
v -10 1 -34
v -7 0 -34
v -7 1 -34
v -2 0 -34
v -2 1 -34
v -48 0 -24
v -45 0 -24
v -40 0 -24
v -37 0 -24
v -36 0 -24
v -33 0 -24
v -31 0 -24
v -28 0 -24
v -27 0 -24
v -22 0 -24
v -17 0 -24
v -10 0 -24
v -6 0 -24
v 1 0 -24
v -45 0 -25
v -44 0 -25
v -41 0 -25
v -40 0 -25
v -22 0 -25
v -21 0 -25
v -18 0 -25
v -17 0 -25
v -44 0 -26
v -43 0 -26
v -42 0 -26
v -41 0 -26
v -21 0 -26
v -20 0 -26
v -15 0 -26
v -10 0 -26
v -6 0 -26
v -4 0 -26
v -1 0 -26
v 1 0 -26
v -48 0 -27
v -43 0 -27
v -42 0 -27
v -37 0 -27
v -36 0 -27
v -33 0 -27
v -31 0 -27
v -28 0 -27
v -27 0 -27
v -24 0 -27
v -23 0 -27
v -20 0 -27
v -19 0 -27
v -18 0 -27
v -15 0 -27
v -4 0 -27
v -1 0 -27
v -45 0 -28
v -44 0 -28
v -41 0 -28
v -40 0 -28
v -33 0 -28
v -31 0 -28
v -23 0 -28
v -22 0 -28
v -15 0 -28
v -11 0 -28
v -48 0 -29
v -45 0 -29
v -44 0 -29
v -43 0 -29
v -42 0 -29
v -41 0 -29
v -40 0 -29
v -37 0 -29
v -36 0 -29
v -28 0 -29
v -27 0 -29
v -24 0 -29
v -22 0 -29
v -19 0 -29
v -18 0 -29
v -11 0 -29
v -4 0 -29
v -1 0 -29
v -43 0 -30
v -42 0 -30
v -33 0 -30
v -31 0 -30
v -15 0 -30
v -11 0 -30
v -48 0 -31
v -45 0 -31
v -40 0 -31
v -37 0 -31
v -36 0 -31
v -33 0 -31
v -31 0 -31
v -28 0 -31
v -27 0 -31
v -24 0 -31
v -22 0 -31
v -19 0 -31
v -18 0 -31
v -15 0 -31
v -4 0 -31
v -1 0 -31
v -33 0 -32
v -31 0 -32
v -15 0 -32
v -10 0 -32
v -7 0 -32
v -4 0 -32
v -48 0 -33
v -45 0 -33
v -40 0 -33
v -37 0 -33
v -36 0 -33
v -35 0 -33
v -29 0 -33
v -28 0 -33
v -27 0 -33
v -24 0 -33
v -22 0 -33
v -19 0 -33
v -18 0 -33
v -17 0 -33
v -10 0 -33
v -7 0 -33
v -2 0 -33
v -1 0 -33
v -48 0 -34
v -45 0 -34
v -40 0 -34
v -37 0 -34
v -35 0 -34
v -29 0 -34
v -27 0 -34
v -24 0 -34
v -22 0 -34
v -19 0 -34
v -17 0 -34
v -10 0 -34
v -7 0 -34
v -2 0 -34
v -48 1 -24
v -45 1 -24
v -40 1 -24
v -37 1 -24
v -36 1 -24
v -33 1 -24
v -31 1 -24
v -28 1 -24
v -27 1 -24
v -22 1 -24
v -17 1 -24
v -10 1 -24
v -6 1 -24
v 1 1 -24
v -45 1 -25
v -44 1 -25
v -41 1 -25
v -40 1 -25
v -22 1 -25
v -21 1 -25
v -18 1 -25
v -17 1 -25
v -44 1 -26
v -43 1 -26
v -42 1 -26
v -41 1 -26
v -21 1 -26
v -20 1 -26
v -15 1 -26
v -10 1 -26
v -6 1 -26
v -4 1 -26
v -1 1 -26
v 1 1 -26
v -48 1 -27
v -43 1 -27
v -42 1 -27
v -37 1 -27
v -36 1 -27
v -33 1 -27
v -31 1 -27
v -28 1 -27
v -27 1 -27
v -24 1 -27
v -23 1 -27
v -20 1 -27
v -19 1 -27
v -18 1 -27
v -15 1 -27
v -4 1 -27
v -1 1 -27
v -45 1 -28
v -44 1 -28
v -41 1 -28
v -40 1 -28
v -33 1 -28
v -31 1 -28
v -23 1 -28
v -22 1 -28
v -15 1 -28
v -11 1 -28
v -48 1 -29
v -45 1 -29
v -44 1 -29
v -43 1 -29
v -42 1 -29
v -41 1 -29
v -40 1 -29
v -37 1 -29
v -36 1 -29
v -28 1 -29
v -27 1 -29
v -24 1 -29
v -22 1 -29
v -19 1 -29
v -18 1 -29
v -11 1 -29
v -4 1 -29
v -1 1 -29
v -43 1 -30
v -42 1 -30
v -33 1 -30
v -31 1 -30
v -15 1 -30
v -11 1 -30
v -48 1 -31
v -45 1 -31
v -40 1 -31
v -37 1 -31
v -36 1 -31
v -33 1 -31
v -31 1 -31
v -28 1 -31
v -27 1 -31
v -24 1 -31
v -22 1 -31
v -19 1 -31
v -18 1 -31
v -15 1 -31
v -4 1 -31
v -1 1 -31
v -33 1 -32
v -31 1 -32
v -15 1 -32
v -10 1 -32
v -7 1 -32
v -4 1 -32
v -48 1 -33
v -45 1 -33
v -40 1 -33
v -37 1 -33
v -36 1 -33
v -35 1 -33
v -29 1 -33
v -28 1 -33
v -27 1 -33
v -24 1 -33
v -22 1 -33
v -19 1 -33
v -18 1 -33
v -17 1 -33
v -10 1 -33
v -7 1 -33
v -2 1 -33
v -1 1 -33
v -48 1 -34
v -45 1 -34
v -40 1 -34
v -37 1 -34
v -35 1 -34
v -29 1 -34
v -27 1 -34
v -24 1 -34
v -22 1 -34
v -19 1 -34
v -17 1 -34
v -10 1 -34
v -7 1 -34
v -2 1 -34

# faces
f 7/5/1 2/5/1 1/5/1
f 8/1/1 3/1/1 2/1/1
f 8/5/1 2/5/1 7/5/1
f 9/2/1 4/2/1 3/2/1
f 9/1/1 3/1/1 8/1/1
f 10/3/1 5/3/1 4/3/1
f 10/2/1 4/2/1 9/2/1
f 11/4/1 6/4/1 5/4/1
f 11/3/1 5/3/1 10/3/1
f 12/4/1 6/4/1 11/4/1
f 15/1/1 14/1/1 13/1/1
f 16/1/1 14/1/1 15/1/1
f 19/2/1 18/2/1 17/2/1
f 20/2/1 18/2/1 19/2/1
f 23/5/1 22/5/1 21/5/1
f 24/5/1 22/5/1 23/5/1
f 27/5/1 26/5/1 25/5/1
f 28/5/1 26/5/1 27/5/1
f 36/5/1 30/5/1 29/5/1
f 37/5/1 30/5/1 36/5/1
f 38/1/1 32/1/1 31/1/1
f 39/2/1 33/2/1 32/2/1
f 39/1/1 32/1/1 38/1/1
f 40/3/1 34/3/1 33/3/1
f 40/2/1 33/2/1 39/2/1
f 41/4/1 35/4/1 34/4/1
f 41/3/1 34/3/1 40/3/1
f 42/4/1 35/4/1 41/4/1
f 48/5/1 44/5/1 43/5/1
f 49/1/1 45/1/1 44/1/1
f 49/5/1 44/5/1 48/5/1
f 50/2/1 46/2/1 45/2/1
f 50/1/1 45/1/1 49/1/1
f 51/3/1 47/3/1 46/3/1
f 51/2/1 46/2/1 50/2/1
f 52/3/1 47/3/1 51/3/1
f 55/4/1 54/4/1 53/4/1
f 56/4/1 54/4/1 55/4/1
f 63/5/1 58/5/1 57/5/1
f 64/1/1 59/1/1 58/1/1
f 64/5/1 58/5/1 63/5/1
f 65/1/1 59/1/1 64/1/1
f 66/2/1 61/2/1 60/2/1
f 67/3/1 62/3/1 61/3/1
f 67/2/1 61/2/1 66/2/1
f 68/3/1 62/3/1 67/3/1
f 75/5/1 70/5/1 69/5/1
f 76/1/1 71/1/1 70/1/1
f 76/5/1 70/5/1 75/5/1
f 77/2/1 72/2/1 71/2/1
f 77/1/1 71/1/1 76/1/1
f 78/3/1 73/3/1 72/3/1
f 78/2/1 72/2/1 77/2/1
f 79/4/1 74/4/1 73/4/1
f 79/3/1 73/3/1 78/3/1
f 80/4/1 74/4/1 79/4/1
f 83/1/1 82/1/1 81/1/1
f 84/1/1 82/1/1 83/1/1
f 90/1/1 86/1/1 85/1/1
f 91/2/1 87/2/1 86/2/1
f 91/1/1 86/1/1 90/1/1
f 92/3/1 88/3/1 87/3/1
f 92/2/1 87/2/1 91/2/1
f 93/4/1 89/4/1 88/4/1
f 93/3/1 88/3/1 92/3/1
f 94/4/1 89/4/1 93/4/1
f 100/5/1 96/5/1 95/5/1
f 101/1/1 97/1/1 96/1/1
f 101/5/1 96/5/1 100/5/1
f 102/2/1 98/2/1 97/2/1
f 102/1/1 97/1/1 101/1/1
f 103/3/1 99/3/1 98/3/1
f 103/2/1 98/2/1 102/2/1
f 104/3/1 99/3/1 103/3/1
f 109/5/1 106/5/1 105/5/1
f 110/5/1 106/5/1 109/5/1
f 111/4/1 108/4/1 107/4/1
f 112/4/1 108/4/1 111/4/1
f 116/3/1 114/3/1 113/3/1
f 117/4/1 115/4/1 114/4/1
f 117/3/1 114/3/1 116/3/1
f 118/4/1 115/4/1 117/4/1
f 121/5/1 120/5/1 119/5/1
f 122/5/1 120/5/1 121/5/1
f 128/5/1 124/5/1 123/5/1
f 129/1/1 125/1/1 124/1/1
f 129/5/1 124/5/1 128/5/1
f 130/2/1 126/2/1 125/2/1
f 130/1/1 125/1/1 129/1/1
f 131/3/1 127/3/1 126/3/1
f 131/2/1 126/2/1 130/2/1
f 132/3/1 127/3/1 131/3/1
f 133/5/2 134/5/2 140/5/2
f 140/5/2 134/5/2 141/5/2
f 135/1/2 136/1/2 142/1/2
f 136/2/2 137/2/2 143/2/2
f 142/1/2 136/1/2 143/1/2
f 137/3/2 138/3/2 144/3/2
f 143/2/2 137/2/2 144/2/2
f 138/4/2 139/4/2 145/4/2
f 144/3/2 138/3/2 145/3/2
f 145/4/2 139/4/2 146/4/2
f 147/5/2 148/5/2 149/5/2
f 149/5/2 148/5/2 150/5/2
f 151/5/2 152/5/2 153/5/2
f 153/5/2 152/5/2 154/5/2
f 155/2/2 156/2/2 157/2/2
f 157/2/2 156/2/2 158/2/2
f 159/1/2 160/1/2 161/1/2
f 161/1/2 160/1/2 162/1/2
f 163/5/2 164/5/2 169/5/2
f 164/1/2 165/1/2 170/1/2
f 169/5/2 164/5/2 170/5/2
f 165/2/2 166/2/2 171/2/2
f 170/1/2 165/1/2 171/1/2
f 166/3/2 167/3/2 172/3/2
f 171/2/2 166/2/2 172/2/2
f 167/4/2 168/4/2 173/4/2
f 172/3/2 167/3/2 173/3/2
f 173/4/2 168/4/2 174/4/2
f 175/5/2 176/5/2 181/5/2
f 176/1/2 177/1/2 182/1/2
f 181/5/2 176/5/2 182/5/2
f 182/1/2 177/1/2 183/1/2
f 178/2/2 179/2/2 184/2/2
f 179/3/2 180/3/2 185/3/2
f 184/2/2 179/2/2 185/2/2
f 185/3/2 180/3/2 186/3/2
f 187/4/2 188/4/2 189/4/2
f 189/4/2 188/4/2 190/4/2
f 191/5/2 192/5/2 196/5/2
f 192/1/2 193/1/2 197/1/2
f 196/5/2 192/5/2 197/5/2
f 193/2/2 194/2/2 198/2/2
f 197/1/2 193/1/2 198/1/2
f 194/3/2 195/3/2 199/3/2
f 198/2/2 194/2/2 199/2/2
f 199/3/2 195/3/2 200/3/2
f 201/1/2 202/1/2 206/1/2
f 202/2/2 203/2/2 207/2/2
f 206/1/2 202/1/2 207/1/2
f 203/3/2 204/3/2 208/3/2
f 207/2/2 203/2/2 208/2/2
f 204/4/2 205/4/2 209/4/2
f 208/3/2 204/3/2 209/3/2
f 209/4/2 205/4/2 210/4/2
f 211/5/2 212/5/2 213/5/2
f 213/5/2 212/5/2 214/5/2
f 215/5/2 216/5/2 217/5/2
f 217/5/2 216/5/2 218/5/2
f 219/5/2 220/5/2 221/5/2
f 221/5/2 220/5/2 222/5/2
f 223/1/2 224/1/2 228/1/2
f 224/2/2 225/2/2 229/2/2
f 228/1/2 224/1/2 229/1/2
f 225/3/2 226/3/2 230/3/2
f 229/2/2 225/2/2 230/2/2
f 226/4/2 227/4/2 231/4/2
f 230/3/2 226/3/2 231/3/2
f 231/4/2 227/4/2 232/4/2
f 233/5/2 234/5/2 239/5/2
f 234/1/2 235/1/2 240/1/2
f 239/5/2 234/5/2 240/5/2
f 240/1/2 235/1/2 241/1/2
f 236/2/2 237/2/2 242/2/2
f 237/3/2 238/3/2 243/3/2
f 242/2/2 237/2/2 243/2/2
f 243/3/2 238/3/2 244/3/2
f 245/1/2 246/1/2 248/1/2
f 246/2/2 247/2/2 249/2/2
f 248/1/2 246/1/2 249/1/2
f 249/2/2 247/2/2 250/2/2
f 251/5/2 252/5/2 256/5/2
f 256/5/2 252/5/2 257/5/2
f 253/3/2 254/3/2 258/3/2
f 254/4/2 255/4/2 259/4/2
f 258/3/2 254/3/2 259/3/2
f 259/4/2 255/4/2 260/4/2
f 261/4/2 262/4/2 263/4/2
f 263/4/2 262/4/2 264/4/2
f 265/5/2 266/5/2 270/5/2
f 266/1/2 267/1/2 271/1/2
f 270/5/2 266/5/2 271/5/2
f 267/2/2 268/2/2 272/2/2
f 271/1/2 267/1/2 272/1/2
f 268/3/2 269/3/2 273/3/2
f 272/2/2 268/2/2 273/2/2
f 273/3/2 269/3/2 274/3/2
f 275/5/2 276/5/2 277/5/2
f 277/5/2 276/5/2 278/5/2
f 281/5/3 280/5/3 279/5/3
f 282/5/3 280/5/3 281/5/3
f 285/5/3 284/5/3 283/5/3
f 286/5/3 284/5/3 285/5/3
f 289/5/3 288/5/3 287/5/3
f 290/5/3 288/5/3 289/5/3
f 293/5/3 292/5/3 291/5/3
f 294/5/3 292/5/3 293/5/3
f 297/5/3 296/5/3 295/5/3
f 298/5/3 296/5/3 297/5/3
f 301/5/3 300/5/3 299/5/3
f 302/5/3 300/5/3 301/5/3
f 305/5/3 304/5/3 303/5/3
f 306/5/3 304/5/3 305/5/3
f 309/5/3 308/5/3 307/5/3
f 310/5/3 308/5/3 309/5/3
f 313/5/3 312/5/3 311/5/3
f 314/5/3 312/5/3 313/5/3
f 317/5/3 316/5/3 315/5/3
f 318/5/3 316/5/3 317/5/3
f 321/5/3 320/5/3 319/5/3
f 322/5/3 320/5/3 321/5/3
f 325/5/3 324/5/3 323/5/3
f 326/5/3 324/5/3 325/5/3
f 329/5/3 328/5/3 327/5/3
f 330/5/3 328/5/3 329/5/3
f 333/5/3 332/5/3 331/5/3
f 334/5/3 332/5/3 333/5/3
f 337/1/3 336/1/3 335/1/3
f 338/1/3 336/1/3 337/1/3
f 341/1/3 340/1/3 339/1/3
f 342/1/3 340/1/3 341/1/3
f 345/1/3 344/1/3 343/1/3
f 346/1/3 344/1/3 345/1/3
f 349/1/3 348/1/3 347/1/3
f 350/1/3 348/1/3 349/1/3
f 353/3/3 352/3/3 351/3/3
f 354/3/3 352/3/3 353/3/3
f 357/3/3 356/3/3 355/3/3
f 358/3/3 356/3/3 357/3/3
f 361/3/3 360/3/3 359/3/3
f 362/3/3 360/3/3 361/3/3
f 363/5/4 364/5/4 365/5/4
f 365/5/4 364/5/4 366/5/4
f 367/5/4 368/5/4 369/5/4
f 369/5/4 368/5/4 370/5/4
f 371/5/4 372/5/4 373/5/4
f 373/5/4 372/5/4 374/5/4
f 375/5/4 376/5/4 377/5/4
f 377/5/4 376/5/4 378/5/4
f 379/1/4 380/1/4 381/1/4
f 381/1/4 380/1/4 382/1/4
f 383/1/4 384/1/4 385/1/4
f 385/1/4 384/1/4 386/1/4
f 387/1/4 388/1/4 389/1/4
f 389/1/4 388/1/4 390/1/4
f 391/1/4 392/1/4 393/1/4
f 393/1/4 392/1/4 394/1/4
f 395/1/4 396/1/4 397/1/4
f 397/1/4 396/1/4 398/1/4
f 399/2/4 400/2/4 401/2/4
f 401/2/4 400/2/4 402/2/4
f 403/2/4 404/2/4 405/2/4
f 405/2/4 404/2/4 406/2/4
f 407/2/4 408/2/4 409/2/4
f 409/2/4 408/2/4 410/2/4
f 411/3/4 412/3/4 413/3/4
f 413/3/4 412/3/4 414/3/4
f 415/3/4 416/3/4 417/3/4
f 417/3/4 416/3/4 418/3/4
f 419/3/4 420/3/4 421/3/4
f 421/3/4 420/3/4 422/3/4
f 423/3/4 424/3/4 425/3/4
f 425/3/4 424/3/4 426/3/4
f 427/4/4 428/4/4 429/4/4
f 429/4/4 428/4/4 430/4/4
f 431/4/4 432/4/4 433/4/4
f 433/4/4 432/4/4 434/4/4
f 435/4/4 436/4/4 437/4/4
f 437/4/4 436/4/4 438/4/4
f 439/4/4 440/4/4 441/4/4
f 441/4/4 440/4/4 442/4/4
f 443/4/4 444/4/4 445/4/4
f 445/4/4 444/4/4 446/4/4
f 447/4/4 448/4/4 449/4/4
f 449/4/4 448/4/4 450/4/4
f 451/4/4 452/4/4 453/4/4
f 453/4/4 452/4/4 454/4/4
f 469/5/5 456/5/5 455/5/5
f 472/5/5 458/5/5 457/5/5
f 473/5/5 464/5/5 463/5/5
f 476/5/5 466/5/5 465/5/5
f 477/5/5 470/5/5 469/5/5
f 480/5/5 472/5/5 471/5/5
f 481/5/5 474/5/5 473/5/5
f 483/5/5 476/5/5 475/5/5
f 483/5/5 466/5/5 476/5/5
f 484/5/5 466/5/5 483/5/5
f 485/5/5 468/5/5 467/5/5
f 486/5/5 468/5/5 485/5/5
f 487/5/5 468/5/5 486/5/5
f 488/5/5 468/5/5 487/5/5
f 489/5/5 478/5/5 477/5/5
f 489/5/5 469/5/5 455/5/5
f 489/5/5 477/5/5 469/5/5
f 490/5/5 478/5/5 489/5/5
f 491/5/5 480/5/5 479/5/5
f 492/5/5 458/5/5 472/5/5
f 492/5/5 472/5/5 480/5/5
f 492/5/5 480/5/5 491/5/5
f 493/5/5 460/5/5 459/5/5
f 494/5/5 460/5/5 493/5/5
f 495/5/5 462/5/5 461/5/5
f 496/5/5 462/5/5 495/5/5
f 497/5/5 482/5/5 481/5/5
f 497/5/5 473/5/5 463/5/5
f 497/5/5 481/5/5 473/5/5
f 498/5/5 482/5/5 497/5/5
f 499/5/5 482/5/5 498/5/5
f 500/5/5 482/5/5 499/5/5
f 502/5/5 483/5/5 475/5/5
f 503/5/5 483/5/5 502/5/5
f 504/5/5 487/5/5 486/5/5
f 505/5/5 487/5/5 504/5/5
f 506/1/5 492/1/5 491/1/5
f 506/1/5 490/1/5 489/1/5
f 506/1/5 491/1/5 490/1/5
f 507/1/5 492/1/5 506/1/5
f 508/1/5 492/1/5 507/1/5
f 509/1/5 492/1/5 508/1/5
f 510/1/5 494/1/5 493/1/5
f 511/1/5 496/1/5 495/1/5
f 512/1/5 501/1/5 500/1/5
f 512/1/5 500/1/5 499/1/5
f 513/1/5 501/1/5 512/1/5
f 514/1/5 503/1/5 502/1/5
f 516/1/5 506/1/5 489/1/5
f 517/1/5 506/1/5 516/1/5
f 518/1/5 508/1/5 507/1/5
f 519/1/5 508/1/5 518/1/5
f 520/1/5 508/1/5 519/1/5
f 521/1/5 508/1/5 520/1/5
f 522/1/5 492/1/5 509/1/5
f 523/1/5 492/1/5 522/1/5
f 524/1/5 510/1/5 493/1/5
f 524/1/5 511/1/5 510/1/5
f 525/1/5 496/1/5 511/1/5
f 525/1/5 511/1/5 524/1/5
f 526/1/5 498/1/5 497/1/5
f 527/1/5 498/1/5 526/1/5
f 528/1/5 501/1/5 513/1/5
f 529/1/5 501/1/5 528/1/5
f 530/1/5 515/1/5 514/1/5
f 530/1/5 514/1/5 502/1/5
f 531/1/5 515/1/5 530/1/5
f 532/1/5 505/1/5 504/1/5
f 533/1/5 505/1/5 532/1/5
f 534/2/5 520/2/5 519/2/5
f 535/2/5 520/2/5 534/2/5
f 536/2/5 525/2/5 524/2/5
f 537/2/5 525/2/5 536/2/5
f 538/2/5 531/2/5 530/2/5
f 539/2/5 531/2/5 538/2/5
f 540/2/5 517/2/5 516/2/5
f 541/2/5 517/2/5 540/2/5
f 542/2/5 523/2/5 522/2/5
f 543/2/5 523/2/5 542/2/5
f 544/2/5 536/2/5 524/2/5
f 545/2/5 536/2/5 544/2/5
f 546/2/5 525/2/5 537/2/5
f 547/2/5 525/2/5 546/2/5
f 548/2/5 527/2/5 526/2/5
f 549/2/5 527/2/5 548/2/5
f 550/2/5 529/2/5 528/2/5
f 551/2/5 529/2/5 550/2/5
f 552/2/5 538/2/5 530/2/5
f 553/2/5 538/2/5 552/2/5
f 554/2/5 533/2/5 532/2/5
f 555/2/5 533/2/5 554/2/5
f 556/3/5 545/3/5 544/3/5
f 557/3/5 547/3/5 546/3/5
f 558/3/5 553/3/5 552/3/5
f 561/3/5 555/3/5 554/3/5
f 562/3/5 541/3/5 540/3/5
f 563/3/5 541/3/5 562/3/5
f 564/3/5 543/3/5 542/3/5
f 565/3/5 543/3/5 564/3/5
f 566/3/5 556/3/5 544/3/5
f 566/3/5 557/3/5 556/3/5
f 567/3/5 557/3/5 566/3/5
f 568/3/5 547/3/5 557/3/5
f 568/3/5 557/3/5 567/3/5
f 569/3/5 547/3/5 568/3/5
f 570/3/5 549/3/5 548/3/5
f 571/3/5 549/3/5 570/3/5
f 572/3/5 551/3/5 550/3/5
f 573/3/5 551/3/5 572/3/5
f 574/3/5 559/3/5 558/3/5
f 574/3/5 558/3/5 552/3/5
f 575/3/5 559/3/5 574/3/5
f 576/3/5 559/3/5 575/3/5
f 577/3/5 561/3/5 560/3/5
f 578/3/5 555/3/5 561/3/5
f 578/3/5 561/3/5 577/3/5
f 579/3/5 555/3/5 578/3/5
f 580/4/5 563/4/5 562/4/5
f 581/4/5 563/4/5 580/4/5
f 582/4/5 565/4/5 564/4/5
f 583/4/5 565/4/5 582/4/5
f 584/4/5 568/4/5 567/4/5
f 585/4/5 568/4/5 584/4/5
f 586/4/5 571/4/5 570/4/5
f 587/4/5 571/4/5 586/4/5
f 588/4/5 573/4/5 572/4/5
f 589/4/5 573/4/5 588/4/5
f 590/4/5 576/4/5 575/4/5
f 591/4/5 576/4/5 590/4/5
f 592/4/5 578/4/5 577/4/5
f 593/4/5 578/4/5 592/4/5
f 594/5/6 595/5/6 608/5/6
f 596/5/6 597/5/6 611/5/6
f 602/5/6 603/5/6 612/5/6
f 604/5/6 605/5/6 615/5/6
f 608/5/6 609/5/6 616/5/6
f 610/5/6 611/5/6 619/5/6
f 612/5/6 613/5/6 620/5/6
f 614/5/6 615/5/6 622/5/6
f 615/5/6 605/5/6 622/5/6
f 622/5/6 605/5/6 623/5/6
f 606/5/6 607/5/6 624/5/6
f 624/5/6 607/5/6 625/5/6
f 625/5/6 607/5/6 626/5/6
f 626/5/6 607/5/6 627/5/6
f 616/5/6 617/5/6 628/5/6
f 594/5/6 608/5/6 628/5/6
f 608/5/6 616/5/6 628/5/6
f 628/5/6 617/5/6 629/5/6
f 618/5/6 619/5/6 630/5/6
f 611/5/6 597/5/6 631/5/6
f 619/5/6 611/5/6 631/5/6
f 630/5/6 619/5/6 631/5/6
f 598/5/6 599/5/6 632/5/6
f 632/5/6 599/5/6 633/5/6
f 600/5/6 601/5/6 634/5/6
f 634/5/6 601/5/6 635/5/6
f 620/5/6 621/5/6 636/5/6
f 602/5/6 612/5/6 636/5/6
f 612/5/6 620/5/6 636/5/6
f 636/5/6 621/5/6 637/5/6
f 637/5/6 621/5/6 638/5/6
f 638/5/6 621/5/6 639/5/6
f 614/5/6 622/5/6 641/5/6
f 641/5/6 622/5/6 642/5/6
f 625/5/6 626/5/6 643/5/6
f 643/5/6 626/5/6 644/5/6
f 630/1/6 631/1/6 645/1/6
f 628/1/6 629/1/6 645/1/6
f 629/1/6 630/1/6 645/1/6
f 645/1/6 631/1/6 646/1/6
f 646/1/6 631/1/6 647/1/6
f 647/1/6 631/1/6 648/1/6
f 632/1/6 633/1/6 649/1/6
f 634/1/6 635/1/6 650/1/6
f 639/1/6 640/1/6 651/1/6
f 638/1/6 639/1/6 651/1/6
f 651/1/6 640/1/6 652/1/6
f 641/1/6 642/1/6 653/1/6
f 628/1/6 645/1/6 655/1/6
f 655/1/6 645/1/6 656/1/6
f 646/1/6 647/1/6 657/1/6
f 657/1/6 647/1/6 658/1/6
f 658/1/6 647/1/6 659/1/6
f 659/1/6 647/1/6 660/1/6
f 648/1/6 631/1/6 661/1/6
f 661/1/6 631/1/6 662/1/6
f 632/1/6 649/1/6 663/1/6
f 649/1/6 650/1/6 663/1/6
f 650/1/6 635/1/6 664/1/6
f 663/1/6 650/1/6 664/1/6
f 636/1/6 637/1/6 665/1/6
f 665/1/6 637/1/6 666/1/6
f 652/1/6 640/1/6 667/1/6
f 667/1/6 640/1/6 668/1/6
f 653/1/6 654/1/6 669/1/6
f 641/1/6 653/1/6 669/1/6
f 669/1/6 654/1/6 670/1/6
f 643/1/6 644/1/6 671/1/6
f 671/1/6 644/1/6 672/1/6
f 658/2/6 659/2/6 673/2/6
f 673/2/6 659/2/6 674/2/6
f 663/2/6 664/2/6 675/2/6
f 675/2/6 664/2/6 676/2/6
f 669/2/6 670/2/6 677/2/6
f 677/2/6 670/2/6 678/2/6
f 655/2/6 656/2/6 679/2/6
f 679/2/6 656/2/6 680/2/6
f 661/2/6 662/2/6 681/2/6
f 681/2/6 662/2/6 682/2/6
f 663/2/6 675/2/6 683/2/6
f 683/2/6 675/2/6 684/2/6
f 676/2/6 664/2/6 685/2/6
f 685/2/6 664/2/6 686/2/6
f 665/2/6 666/2/6 687/2/6
f 687/2/6 666/2/6 688/2/6
f 667/2/6 668/2/6 689/2/6
f 689/2/6 668/2/6 690/2/6
f 669/2/6 677/2/6 691/2/6
f 691/2/6 677/2/6 692/2/6
f 671/2/6 672/2/6 693/2/6
f 693/2/6 672/2/6 694/2/6
f 683/3/6 684/3/6 695/3/6
f 685/3/6 686/3/6 696/3/6
f 691/3/6 692/3/6 697/3/6
f 693/3/6 694/3/6 700/3/6
f 679/3/6 680/3/6 701/3/6
f 701/3/6 680/3/6 702/3/6
f 681/3/6 682/3/6 703/3/6
f 703/3/6 682/3/6 704/3/6
f 683/3/6 695/3/6 705/3/6
f 695/3/6 696/3/6 705/3/6
f 705/3/6 696/3/6 706/3/6
f 696/3/6 686/3/6 707/3/6
f 706/3/6 696/3/6 707/3/6
f 707/3/6 686/3/6 708/3/6
f 687/3/6 688/3/6 709/3/6
f 709/3/6 688/3/6 710/3/6
f 689/3/6 690/3/6 711/3/6
f 711/3/6 690/3/6 712/3/6
f 697/3/6 698/3/6 713/3/6
f 691/3/6 697/3/6 713/3/6
f 713/3/6 698/3/6 714/3/6
f 714/3/6 698/3/6 715/3/6
f 699/3/6 700/3/6 716/3/6
f 700/3/6 694/3/6 717/3/6
f 716/3/6 700/3/6 717/3/6
f 717/3/6 694/3/6 718/3/6
f 701/4/6 702/4/6 719/4/6
f 719/4/6 702/4/6 720/4/6
f 703/4/6 704/4/6 721/4/6
f 721/4/6 704/4/6 722/4/6
f 706/4/6 707/4/6 723/4/6
f 723/4/6 707/4/6 724/4/6
f 709/4/6 710/4/6 725/4/6
f 725/4/6 710/4/6 726/4/6
f 711/4/6 712/4/6 727/4/6
f 727/4/6 712/4/6 728/4/6
f 714/4/6 715/4/6 729/4/6
f 729/4/6 715/4/6 730/4/6
f 716/4/6 717/4/6 731/4/6
f 731/4/6 717/4/6 732/4/6
